<?xml version="1.0" encoding="UTF-8" standalone="no"?>
<!DOCTYPE svg PUBLIC "-//W3C//DTD SVG 1.1//EN"
 "http://www.w3.org/Graphics/SVG/1.1/DTD/svg11.dtd">
<!-- Generated by graphviz version 10.0.1 (0)
 -->
<!-- Title: G Pages: 1 -->
<svg width="638pt" height="657pt"
 viewBox="0.00 0.00 638.33 657.00" xmlns="http://www.w3.org/2000/svg" xmlns:xlink="http://www.w3.org/1999/xlink">
<g id="graph0" class="graph" transform="scale(1 1) rotate(0) translate(4 653)">
<title>G</title><style>.edge>path:hover{stroke-width:8}</style>
<polygon fill="white" stroke="none" points="-4,4 -4,-653 634.33,-653 634.33,4 -4,4"/>
<!-- app_py -->
<g id="node1" class="node">
<title>app_py</title><style>.edge>path:hover{stroke-width:8}</style>
<ellipse fill="#9f5656" stroke="black" cx="515.54" cy="-18" rx="29.98" ry="18"/>
<text text-anchor="middle" x="515.54" y="-14.88" font-family="Helvetica,sans-Serif" font-size="10.00" fill="#ffffff">app.py</text>
</g>
<!-- flask -->
<g id="node2" class="node">
<title>flask</title><style>.edge>path:hover{stroke-width:8}</style>
<polygon fill="blue" stroke="black" points="266.54,-145 212.54,-145 212.54,-109 266.54,-109 266.54,-145"/>
<text text-anchor="middle" x="239.54" y="-123.88" font-family="Helvetica,sans-Serif" font-size="10.00" fill="white">flask</text>
</g>
<!-- flask&#45;&gt;app_py -->
<g id="edge1" class="edge">
<title>flask&#45;&gt;app_py</title><style>.edge>path:hover{stroke-width:8}</style>
<path fill="none" stroke="black" d="M267.02,-125.38C331.23,-123.24 487.75,-113.85 515.54,-73"/>
<path fill="none" stroke="black" d="M515.54,-72C520.32,-64.97 521.65,-56.1 521.4,-47.65"/>
<polygon fill="blue" stroke="black" points="524.88,-47.28 520.34,-37.7 517.92,-48.02 524.88,-47.28"/>
</g>
<!-- flask_app -->
<g id="node3" class="node">
<title>flask_app</title><style>.edge>path:hover{stroke-width:8}</style>
<polygon fill="blue" stroke="black" points="289.66,-577 229.41,-577 229.41,-541 289.66,-541 289.66,-577"/>
<text text-anchor="middle" x="259.54" y="-555.88" font-family="Helvetica,sans-Serif" font-size="10.00" fill="white">flask.app</text>
</g>
<!-- flask_app&#45;&gt;flask -->
<g id="edge2" class="edge">
<title>flask_app&#45;&gt;flask</title><style>.edge>path:hover{stroke-width:8}</style>
<path fill="none" stroke="black" d="M289.93,-545.9C334.29,-526.01 411.54,-481.91 411.54,-416 411.54,-416 411.54,-416 411.54,-342 411.54,-341.49 449.78,-200.45 449.54,-200"/>
<path fill="none" stroke="black" d="M449.54,-198C414.03,-140.69 328.57,-129.05 278.29,-127.41"/>
<polygon fill="blue" stroke="black" points="278.5,-123.91 268.44,-127.21 278.37,-130.91 278.5,-123.91"/>
</g>
<!-- flask_ctx -->
<g id="node6" class="node">
<title>flask_ctx</title><style>.edge>path:hover{stroke-width:8}</style>
<polygon fill="blue" stroke="black" points="193.16,-505 135.91,-505 135.91,-469 193.16,-469 193.16,-505"/>
<text text-anchor="middle" x="164.54" y="-483.88" font-family="Helvetica,sans-Serif" font-size="10.00" fill="white">flask.ctx</text>
</g>
<!-- flask_app&#45;&gt;flask_ctx -->
<g id="edge3" class="edge">
<title>flask_app&#45;&gt;flask_ctx</title><style>.edge>path:hover{stroke-width:8}</style>
<path fill="none" stroke="black" d="M227.08,-534.08C217.48,-527.01 206.96,-519.26 197.34,-512.17"/>
<polygon fill="blue" stroke="black" points="224.71,-536.68 234.84,-539.8 228.86,-531.05 224.71,-536.68"/>
<polygon fill="blue" stroke="black" points="199.43,-509.36 189.3,-506.24 195.27,-514.99 199.43,-509.36"/>
</g>
<!-- flask_globals -->
<g id="node7" class="node">
<title>flask_globals</title><style>.edge>path:hover{stroke-width:8}</style>
<polygon fill="blue" stroke="black" points="231.29,-433 153.79,-433 153.79,-397 231.29,-397 231.29,-433"/>
<text text-anchor="middle" x="192.54" y="-411.88" font-family="Helvetica,sans-Serif" font-size="10.00" fill="white">flask.globals</text>
</g>
<!-- flask_app&#45;&gt;flask_globals -->
<g id="edge4" class="edge">
<title>flask_app&#45;&gt;flask_globals</title><style>.edge>path:hover{stroke-width:8}</style>
<path fill="none" stroke="black" d="M246.5,-530.37C234.65,-505.26 217.26,-468.41 205.45,-443.37"/>
<polygon fill="blue" stroke="black" points="243.24,-531.67 250.68,-539.22 249.58,-528.68 243.24,-531.67"/>
<polygon fill="blue" stroke="black" points="208.69,-442.03 201.26,-434.48 202.36,-445.02 208.69,-442.03"/>
</g>
<!-- flask_templating -->
<g id="node11" class="node">
<title>flask_templating</title><style>.edge>path:hover{stroke-width:8}</style>
<polygon fill="blue" stroke="black" points="370.16,-217 300.91,-217 300.91,-181 370.16,-181 370.16,-217"/>
<text text-anchor="middle" x="335.54" y="-202.25" font-family="Helvetica,sans-Serif" font-size="10.00" fill="white">flask.</text>
<text text-anchor="middle" x="335.54" y="-189.5" font-family="Helvetica,sans-Serif" font-size="10.00" fill="white">templating</text>
</g>
<!-- flask_app&#45;&gt;flask_templating -->
<g id="edge5" class="edge">
<title>flask_app&#45;&gt;flask_templating</title><style>.edge>path:hover{stroke-width:8}</style>
<path fill="none" stroke="black" d="M283.24,-532.36C305.55,-505.48 335.54,-460.97 335.54,-416 335.54,-416 335.54,-416 335.54,-342 335.54,-302.74 335.54,-257.38 335.54,-228.69"/>
<polygon fill="blue" stroke="black" points="280.87,-529.75 277.01,-539.62 286.18,-534.31 280.87,-529.75"/>
<polygon fill="blue" stroke="black" points="339.04,-229 335.54,-219 332.04,-229 339.04,-229"/>
</g>
<!-- flask_blueprints -->
<g id="node4" class="node">
<title>flask_blueprints</title><style>.edge>path:hover{stroke-width:8}</style>
<polygon fill="blue" stroke="black" points="139.91,-217 75.16,-217 75.16,-181 139.91,-181 139.91,-217"/>
<text text-anchor="middle" x="107.54" y="-202.25" font-family="Helvetica,sans-Serif" font-size="10.00" fill="white">flask.</text>
<text text-anchor="middle" x="107.54" y="-189.5" font-family="Helvetica,sans-Serif" font-size="10.00" fill="white">blueprints</text>
</g>
<!-- flask_blueprints&#45;&gt;flask -->
<g id="edge6" class="edge">
<title>flask_blueprints&#45;&gt;flask</title><style>.edge>path:hover{stroke-width:8}</style>
<path fill="none" stroke="black" d="M140.17,-180.7C158.93,-170.74 182.59,-158.2 202.11,-147.85"/>
<polygon fill="blue" stroke="black" points="203.65,-150.99 210.84,-143.22 200.37,-144.81 203.65,-150.99"/>
</g>
<!-- flask_config -->
<g id="node5" class="node">
<title>flask_config</title><style>.edge>path:hover{stroke-width:8}</style>
<ellipse fill="#85b653" stroke="black" cx="239.54" cy="-199" rx="43.75" ry="18"/>
<text text-anchor="middle" x="239.54" y="-195.88" font-family="Helvetica,sans-Serif" font-size="10.00" fill="#000000">flask.config</text>
</g>
<!-- flask_config&#45;&gt;flask -->
<g id="edge7" class="edge">
<title>flask_config&#45;&gt;flask</title><style>.edge>path:hover{stroke-width:8}</style>
<path fill="none" stroke="black" d="M239.54,-180.7C239.54,-173.41 239.54,-164.73 239.54,-156.54"/>
<polygon fill="#85b653" stroke="black" points="243.04,-156.62 239.54,-146.62 236.04,-156.62 243.04,-156.62"/>
</g>
<!-- flask_ctx&#45;&gt;flask -->
<g id="edge8" class="edge">
<title>flask_ctx&#45;&gt;flask</title><style>.edge>path:hover{stroke-width:8}</style>
<path fill="none" stroke="black" d="M138.7,-468.61C108.5,-446.93 59.15,-407.07 31.54,-361 10.48,-325.86 12.81,-312.63 7.54,-272"/>
<path fill="none" stroke="black" d="M7.54,-270C1.99,-239.39 -5.73,-228.14 7.54,-200"/>
<path fill="none" stroke="black" d="M7.54,-198C24.27,-162.52 139.73,-141.58 201.21,-132.83"/>
<polygon fill="blue" stroke="black" points="201.45,-136.33 210.88,-131.5 200.49,-129.4 201.45,-136.33"/>
</g>
<!-- flask_ctx&#45;&gt;flask_globals -->
<g id="edge10" class="edge">
<title>flask_ctx&#45;&gt;flask_globals</title><style>.edge>path:hover{stroke-width:8}</style>
<path fill="none" stroke="black" d="M175.7,-458.1C177.6,-453.34 179.57,-448.41 181.47,-443.66"/>
<polygon fill="blue" stroke="black" points="172.49,-456.71 172.02,-467.29 178.99,-459.31 172.49,-456.71"/>
<polygon fill="blue" stroke="black" points="184.67,-445.09 185.13,-434.51 178.17,-442.49 184.67,-445.09"/>
</g>
<!-- flask_globals&#45;&gt;flask -->
<g id="edge11" class="edge">
<title>flask_globals&#45;&gt;flask</title><style>.edge>path:hover{stroke-width:8}</style>
<path fill="none" stroke="black" d="M153.61,-408.91C117.01,-401.7 65.02,-384.5 45.54,-344"/>
<path fill="none" stroke="black" d="M45.54,-342C30.19,-310.1 12.09,-307.11 7.54,-272"/>
</g>
<!-- flask_globals&#45;&gt;flask_blueprints -->
<g id="edge13" class="edge">
<title>flask_globals&#45;&gt;flask_blueprints</title><style>.edge>path:hover{stroke-width:8}</style>
<path fill="none" stroke="black" d="M45.54,-342C31.03,-309.14 91.46,-321.6 106.54,-289 115.23,-270.22 115.1,-246.74 113,-228.61"/>
<polygon fill="blue" stroke="black" points="116.48,-228.2 111.58,-218.81 109.55,-229.21 116.48,-228.2"/>
</g>
<!-- flask_helpers -->
<g id="node8" class="node">
<title>flask_helpers</title><style>.edge>path:hover{stroke-width:8}</style>
<polygon fill="blue" stroke="black" points="269.66,-289 191.41,-289 191.41,-253 269.66,-253 269.66,-289"/>
<text text-anchor="middle" x="230.54" y="-267.88" font-family="Helvetica,sans-Serif" font-size="10.00" fill="white">flask.helpers</text>
</g>
<!-- flask_globals&#45;&gt;flask_helpers -->
<g id="edge15" class="edge">
<title>flask_globals&#45;&gt;flask_helpers</title><style>.edge>path:hover{stroke-width:8}</style>
<path fill="none" stroke="black" d="M197.2,-396.59C203.64,-372.5 215.35,-328.75 223.04,-300.03"/>
<polygon fill="blue" stroke="black" points="226.36,-301.14 225.57,-290.57 219.6,-299.33 226.36,-301.14"/>
</g>
<!-- flask_json -->
<g id="node9" class="node">
<title>flask_json</title><style>.edge>path:hover{stroke-width:8}</style>
<polygon fill="blue" stroke="black" points="97.79,-289 35.29,-289 35.29,-253 97.79,-253 97.79,-289"/>
<text text-anchor="middle" x="66.54" y="-267.88" font-family="Helvetica,sans-Serif" font-size="10.00" fill="white">flask.json</text>
</g>
<!-- flask_globals&#45;&gt;flask_json -->
<g id="edge16" class="edge">
<title>flask_globals&#45;&gt;flask_json</title><style>.edge>path:hover{stroke-width:8}</style>
<path fill="none" stroke="black" d="M45.54,-342C39.51,-328.35 43.45,-312.48 49.47,-299.3"/>
<polygon fill="blue" stroke="black" points="52.41,-301.23 53.9,-290.74 46.2,-298.02 52.41,-301.23"/>
</g>
<!-- flask_globals&#45;&gt;flask_templating -->
<g id="edge17" class="edge">
<title>flask_globals&#45;&gt;flask_templating</title><style>.edge>path:hover{stroke-width:8}</style>
<path fill="none" stroke="black" d="M204.69,-396.73C221.51,-372.73 252.75,-327.84 278.54,-289 292.28,-268.3 307.44,-244.59 318.66,-226.86"/>
<polygon fill="blue" stroke="black" points="321.59,-228.77 323.97,-218.45 315.67,-225.04 321.59,-228.77"/>
</g>
<!-- flask_wrappers -->
<g id="node12" class="node">
<title>flask_wrappers</title><style>.edge>path:hover{stroke-width:8}</style>
<polygon fill="blue" stroke="black" points="193.16,-361 105.91,-361 105.91,-325 193.16,-325 193.16,-361"/>
<text text-anchor="middle" x="149.54" y="-339.88" font-family="Helvetica,sans-Serif" font-size="10.00" fill="white">flask.wrappers</text>
</g>
<!-- flask_globals&#45;&gt;flask_wrappers -->
<g id="edge18" class="edge">
<title>flask_globals&#45;&gt;flask_wrappers</title><style>.edge>path:hover{stroke-width:8}</style>
<path fill="none" stroke="black" d="M175.92,-386.95C172.67,-381.65 169.26,-376.1 166.01,-370.81"/>
<polygon fill="blue" stroke="black" points="172.9,-388.72 181.12,-395.41 178.87,-385.05 172.9,-388.72"/>
<polygon fill="blue" stroke="black" points="169.05,-369.08 160.84,-362.39 163.09,-372.75 169.05,-369.08"/>
</g>
<!-- flask_helpers&#45;&gt;flask -->
<g id="edge19" class="edge">
<title>flask_helpers&#45;&gt;flask</title><style>.edge>path:hover{stroke-width:8}</style>
<path fill="none" stroke="black" d="M199.1,-252.65C181.21,-240.19 163.16,-221.8 167.54,-200"/>
</g>
<!-- flask_helpers&#45;&gt;flask_app -->
<g id="edge20" class="edge">
<title>flask_helpers&#45;&gt;flask_app</title><style>.edge>path:hover{stroke-width:8}</style>
<path fill="none" stroke="black" d="M232.04,-289.18C234.64,-314.29 241.14,-362.47 255.58,-403.47"/>
<polygon fill="blue" stroke="black" points="252.21,-404.45 259.01,-412.58 258.76,-401.99 252.21,-404.45"/>
</g>
<!-- flask_helpers&#45;&gt;flask_blueprints -->
<g id="edge21" class="edge">
<title>flask_helpers&#45;&gt;flask_blueprints</title><style>.edge>path:hover{stroke-width:8}</style>
<path fill="none" stroke="black" d="M199.82,-252.52C184,-243.51 164.51,-232.42 147.53,-222.76"/>
<polygon fill="blue" stroke="black" points="149.61,-219.91 139.18,-218.01 146.14,-226 149.61,-219.91"/>
</g>
<!-- flask_helpers&#45;&gt;flask_templating -->
<g id="edge22" class="edge">
<title>flask_helpers&#45;&gt;flask_templating</title><style>.edge>path:hover{stroke-width:8}</style>
<path fill="none" stroke="black" d="M256.76,-252.52C269.89,-243.76 285.97,-233.04 300.17,-223.58"/>
<polygon fill="blue" stroke="black" points="302.01,-226.56 308.39,-218.1 298.13,-220.73 302.01,-226.56"/>
</g>
<!-- flask_json&#45;&gt;flask -->
<g id="edge24" class="edge">
<title>flask_json&#45;&gt;flask</title><style>.edge>path:hover{stroke-width:8}</style>
<path fill="none" stroke="black" d="M35.73,-252.59C16.85,-239.45 -2.02,-220.27 7.54,-200"/>
</g>
<!-- flask_signals -->
<g id="node10" class="node">
<title>flask_signals</title><style>.edge>path:hover{stroke-width:8}</style>
<ellipse fill="#85e722" stroke="black" cx="259.54" cy="-631" rx="46.96" ry="18"/>
<text text-anchor="middle" x="259.54" y="-627.88" font-family="Helvetica,sans-Serif" font-size="10.00" fill="#000000">flask.signals</text>
</g>
<!-- flask_signals&#45;&gt;flask -->
<g id="edge26" class="edge">
<title>flask_signals&#45;&gt;flask</title><style>.edge>path:hover{stroke-width:8}</style>
<path fill="none" stroke="black" d="M449.54,-270C435.44,-242.27 465.92,-226.45 449.54,-200"/>
</g>
<!-- flask_signals&#45;&gt;flask_app -->
<g id="edge27" class="edge">
<title>flask_signals&#45;&gt;flask_app</title><style>.edge>path:hover{stroke-width:8}</style>
<path fill="none" stroke="black" d="M259.54,-612.7C259.54,-605.41 259.54,-596.73 259.54,-588.54"/>
<polygon fill="#85e722" stroke="black" points="263.04,-588.62 259.54,-578.62 256.04,-588.62 263.04,-588.62"/>
</g>
<!-- flask_signals&#45;&gt;flask_ctx -->
<g id="edge28" class="edge">
<title>flask_signals&#45;&gt;flask_ctx</title><style>.edge>path:hover{stroke-width:8}</style>
<path fill="none" stroke="black" d="M246.93,-613.51C239.13,-603.16 229.03,-589.46 220.54,-577 206.62,-556.57 191.76,-532.85 180.84,-515.04"/>
<polygon fill="#85e722" stroke="black" points="183.89,-513.31 175.7,-506.59 177.91,-516.95 183.89,-513.31"/>
</g>
<!-- flask_signals&#45;&gt;flask_helpers -->
<g id="edge29" class="edge">
<title>flask_signals&#45;&gt;flask_helpers</title><style>.edge>path:hover{stroke-width:8}</style>
<path fill="none" stroke="black" d="M302.37,-623.28C338.44,-615.11 387.85,-597.44 411.54,-560"/>
<path fill="none" stroke="black" d="M411.54,-558C473.06,-460.78 334.6,-344.98 266.07,-295.89"/>
<polygon fill="#85e722" stroke="black" points="268.32,-293.19 258.13,-290.28 264.29,-298.91 268.32,-293.19"/>
</g>
<!-- flask_signals&#45;&gt;flask_templating -->
<g id="edge30" class="edge">
<title>flask_signals&#45;&gt;flask_templating</title><style>.edge>path:hover{stroke-width:8}</style>
<path fill="none" stroke="black" d="M411.54,-558C497.18,-462.56 491.67,-393.11 449.54,-272"/>
<path fill="none" stroke="black" d="M449.54,-270C435.82,-243.01 406.5,-225.35 381.04,-214.53"/>
<polygon fill="#85e722" stroke="black" points="382.41,-211.3 371.82,-210.86 379.82,-217.81 382.41,-211.3"/>
</g>
<!-- flask_templating&#45;&gt;flask -->
<g id="edge31" class="edge">
<title>flask_templating&#45;&gt;flask</title><style>.edge>path:hover{stroke-width:8}</style>
<path fill="none" stroke="black" d="M311.81,-180.7C299.92,-172.03 285.34,-161.4 272.4,-151.96"/>
<polygon fill="blue" stroke="black" points="274.69,-149.3 264.55,-146.24 270.57,-154.96 274.69,-149.3"/>
</g>
<!-- flask_wrappers&#45;&gt;flask -->
<g id="edge33" class="edge">
<title>flask_wrappers&#45;&gt;flask</title><style>.edge>path:hover{stroke-width:8}</style>
<path fill="none" stroke="black" d="M163.54,-270C161.13,-238.93 161.4,-230.55 167.54,-200"/>
<path fill="none" stroke="black" d="M167.54,-198C171.61,-177.71 187.39,-161.19 203.14,-149.3"/>
<polygon fill="blue" stroke="black" points="204.92,-152.33 211.08,-143.71 200.89,-146.6 204.92,-152.33"/>
</g>
<!-- flask_wrappers&#45;&gt;flask_app -->
<g id="edge34" class="edge">
<title>flask_wrappers&#45;&gt;flask_app</title><style>.edge>path:hover{stroke-width:8}</style>
<path fill="none" stroke="black" d="M193.55,-357.6C215.89,-366.92 241.07,-381.72 254.53,-403.99"/>
<polygon fill="blue" stroke="black" points="251.26,-405.27 258.86,-412.65 257.52,-402.14 251.26,-405.27"/>
<path fill="none" stroke="black" d="M259.54,-416C274.07,-458.97 267.71,-513.53 262.99,-540.82"/>
</g>
<!-- flask_wrappers&#45;&gt;flask_blueprints -->
<g id="edge35" class="edge">
<title>flask_wrappers&#45;&gt;flask_blueprints</title><style>.edge>path:hover{stroke-width:8}</style>
<path fill="none" stroke="black" d="M155.76,-324.61C160.12,-310.55 164.94,-290.16 163.54,-272"/>
<path fill="none" stroke="black" d="M163.54,-270C162.19,-252.6 151.28,-237.02 139.44,-224.99"/>
<polygon fill="blue" stroke="black" points="142,-222.59 132.31,-218.29 137.21,-227.69 142,-222.59"/>
</g>
<!-- flask_wrappers&#45;&gt;flask_ctx -->
<g id="edge36" class="edge">
<title>flask_wrappers&#45;&gt;flask_ctx</title><style>.edge>path:hover{stroke-width:8}</style>
<path fill="none" stroke="black" d="M146.19,-361.21C143.24,-379.25 140.04,-408.34 144.54,-433 146.07,-441.42 148.88,-450.23 151.91,-458.21"/>
<polygon fill="blue" stroke="black" points="148.63,-459.46 155.66,-467.39 155.11,-456.81 148.63,-459.46"/>
</g>
<!-- flask_wrappers&#45;&gt;flask_helpers -->
<g id="edge38" class="edge">
<title>flask_wrappers&#45;&gt;flask_helpers</title><style>.edge>path:hover{stroke-width:8}</style>
<path fill="none" stroke="black" d="M178.17,-317.26C185.84,-310.63 194.14,-303.46 201.81,-296.83"/>
<polygon fill="blue" stroke="black" points="175.98,-314.52 170.71,-323.71 180.56,-319.82 175.98,-314.52"/>
<polygon fill="blue" stroke="black" points="204.04,-299.52 209.32,-290.34 199.47,-294.23 204.04,-299.52"/>
</g>
<!-- flask_wrappers&#45;&gt;flask_json -->
<g id="edge39" class="edge">
<title>flask_wrappers&#45;&gt;flask_json</title><style>.edge>path:hover{stroke-width:8}</style>
<path fill="none" stroke="black" d="M120.53,-317.53C112.52,-310.78 103.83,-303.45 95.81,-296.68"/>
<polygon fill="blue" stroke="black" points="117.96,-319.95 127.86,-323.72 122.48,-314.6 117.96,-319.95"/>
<polygon fill="blue" stroke="black" points="98.16,-294.09 88.26,-290.32 93.65,-299.45 98.16,-294.09"/>
</g>
<!-- psycopg2 -->
<g id="node13" class="node">
<title>psycopg2</title><style>.edge>path:hover{stroke-width:8}</style>
<ellipse fill="#33cccc" stroke="black" cx="515.54" cy="-199" rx="38.24" ry="18"/>
<text text-anchor="middle" x="515.54" y="-195.88" font-family="Helvetica,sans-Serif" font-size="10.00" fill="#000000">psycopg2</text>
</g>
<!-- query_data -->
<g id="node15" class="node">
<title>query_data</title><style>.edge>path:hover{stroke-width:8}</style>
<ellipse fill="#7a49ac" stroke="black" cx="515.54" cy="-127" rx="43.29" ry="18"/>
<text text-anchor="middle" x="515.54" y="-123.88" font-family="Helvetica,sans-Serif" font-size="10.00" fill="#ffffff">query_data</text>
</g>
<!-- psycopg2&#45;&gt;query_data -->
<g id="edge40" class="edge">
<title>psycopg2&#45;&gt;query_data</title><style>.edge>path:hover{stroke-width:8}</style>
<path fill="none" stroke="black" d="M515.54,-180.7C515.54,-173.41 515.54,-164.73 515.54,-156.54"/>
<polygon fill="#33cccc" stroke="black" points="519.04,-156.62 515.54,-146.62 512.04,-156.62 519.04,-156.62"/>
</g>
<!-- psycopg2_sql -->
<g id="node14" class="node">
<title>psycopg2_sql</title><style>.edge>path:hover{stroke-width:8}</style>
<ellipse fill="#4cb3b3" stroke="black" cx="581.54" cy="-271" rx="48.8" ry="18"/>
<text text-anchor="middle" x="581.54" y="-267.88" font-family="Helvetica,sans-Serif" font-size="10.00" fill="#000000">psycopg2.sql</text>
</g>
<!-- psycopg2_sql&#45;&gt;query_data -->
<g id="edge41" class="edge">
<title>psycopg2_sql&#45;&gt;query_data</title><style>.edge>path:hover{stroke-width:8}</style>
<path fill="none" stroke="black" d="M580.47,-252.74C578.74,-234.15 574.22,-204.13 562.54,-181 557.13,-170.3 549.02,-160.06 541.06,-151.49"/>
<polygon fill="#4cb3b3" stroke="black" points="543.8,-149.29 534.31,-144.59 538.8,-154.18 543.8,-149.29"/>
</g>
<!-- query_data&#45;&gt;app_py -->
<g id="edge42" class="edge">
<title>query_data&#45;&gt;app_py</title><style>.edge>path:hover{stroke-width:8}</style>
<path fill="none" stroke="black" d="M510.9,-108.8C508.94,-97.66 508.5,-83.35 515.54,-73"/>
</g>
</g>
</svg>
